<svg width="252" height="119" viewBox="0 0 252 119" fill="none" xmlns="http://www.w3.org/2000/svg">
<g filter="url(#filter0_d)">
<path d="M64.3703 107.461H74.7719L57.7132 58.9202H45.8553L28.866 107.461H39.1983L42.1107 98.7238H61.4578L64.3703 107.461ZM45.1619 89.7784L51.8189 69.9459L58.476 89.7784H45.1619Z" fill="black"/>
<path d="M94.625 108.432C101.421 108.432 107.315 104.826 110.297 99.4173L102.53 94.9792C101.143 97.8223 98.1615 99.5559 94.5556 99.5559C89.2161 99.5559 85.2635 95.6033 85.2635 90.1251C85.2635 84.5776 89.2161 80.6249 94.5556 80.6249C98.0922 80.6249 101.074 82.4279 102.461 85.271L110.158 80.7636C107.315 75.4241 101.421 71.8182 94.625 71.8182C84.0846 71.8182 76.3181 79.7928 76.3181 90.1251C76.3181 100.457 84.0846 108.432 94.625 108.432Z" fill="black"/>
<path d="M130.99 108.432C137.786 108.432 143.68 104.826 146.662 99.4173L138.895 94.9792C137.508 97.8223 134.527 99.5559 130.921 99.5559C125.581 99.5559 121.629 95.6033 121.629 90.1251C121.629 84.5776 125.581 80.6249 130.921 80.6249C134.457 80.6249 137.439 82.4279 138.826 85.271L146.523 80.7636C143.68 75.4241 137.786 71.8182 130.99 71.8182C120.45 71.8182 112.683 79.7928 112.683 90.1251C112.683 100.457 120.45 108.432 130.99 108.432Z" fill="black"/>
<path d="M158.41 93.8004H184.553C184.761 92.6215 184.899 91.4426 184.899 90.1251C184.899 79.9315 177.618 71.8182 167.355 71.8182C156.468 71.8182 149.048 79.7928 149.048 90.1251C149.048 100.457 156.399 108.432 168.049 108.432C174.706 108.432 179.907 105.728 183.166 101.012L175.954 96.8515C174.428 98.8625 171.655 100.319 168.187 100.319C163.472 100.319 159.658 98.3771 158.41 93.8004ZM158.271 86.8659C159.311 82.4279 162.571 79.8621 167.355 79.8621C171.1 79.8621 174.844 81.8731 175.954 86.8659H158.271Z" fill="black"/>
<path d="M198.042 82.6359C198.042 80.7636 199.845 79.7928 202.064 79.7928C204.629 79.7928 206.571 81.1103 207.611 83.3294L215.239 79.1687C212.535 74.3839 207.681 71.8182 202.064 71.8182C194.921 71.8182 188.888 75.7708 188.888 82.844C188.888 95.0486 206.779 92.2748 206.779 97.3369C206.779 99.3479 204.838 100.319 201.994 100.319C198.527 100.319 196.169 98.6545 195.199 95.8113L187.432 100.18C189.928 105.52 195.06 108.432 201.994 108.432C209.414 108.432 215.933 104.826 215.933 97.3369C215.933 84.5776 198.042 87.7674 198.042 82.6359Z" fill="black"/>
<path d="M228.109 82.6359C228.109 80.7636 229.912 79.7928 232.131 79.7928C234.697 79.7928 236.638 81.1103 237.679 83.3294L245.306 79.1687C242.602 74.3839 237.748 71.8182 232.131 71.8182C224.989 71.8182 218.956 75.7708 218.956 82.844C218.956 95.0486 236.846 92.2748 236.846 97.3369C236.846 99.3479 234.905 100.319 232.062 100.319C228.594 100.319 226.237 98.6545 225.266 95.8113L217.499 100.18C219.996 105.52 225.127 108.432 232.062 108.432C239.481 108.432 246 104.826 246 97.3369C246 84.5776 228.109 87.7674 228.109 82.6359Z" fill="black"/>
<path d="M22.2539 77.0091C15.6495 71.6632 10.8155 64.4456 8.38647 56.3034C5.95739 48.1611 6.04667 39.4747 8.64259 31.3841C11.2385 23.2935 16.2198 16.1768 22.9327 10.9678C29.6456 5.75882 37.7765 2.70102 46.2583 2.1957C54.7401 1.69037 63.1766 3.76112 70.4605 8.1362C77.7444 12.5113 83.5354 18.9862 87.0736 26.7114C90.6118 34.4365 91.7318 43.0509 90.2867 51.4239C88.8415 59.797 84.8988 67.5375 78.9758 73.6297L51.8219 47.2302C52.4214 46.6136 52.8204 45.8302 52.9667 44.9827C53.113 44.1353 52.9996 43.2635 52.6415 42.4816C52.2834 41.6998 51.6973 41.0444 50.9601 40.6016C50.2229 40.1588 49.3691 39.9493 48.5106 40.0004C47.6522 40.0515 46.8293 40.361 46.1499 40.8882C45.4705 41.4154 44.9663 42.1357 44.7036 42.9545C44.4408 43.7734 44.4318 44.6525 44.6777 45.4766C44.9235 46.3007 45.4127 47.0312 46.0812 47.5722L22.2539 77.0091Z" fill="black"/>
<path d="M26.1304 72.0815C20.5144 67.5357 16.4038 61.3981 14.3382 54.4744C12.2727 47.5506 12.3486 40.1641 14.556 33.2843C16.7635 26.4045 20.9993 20.3527 26.7076 15.9233C32.416 11.4938 39.3301 8.89363 46.5426 8.46392C53.7551 8.03422 60.929 9.79508 67.1229 13.5154C73.3167 17.2358 78.2412 22.7418 81.2499 29.3108C84.2586 35.8799 85.211 43.2051 83.9821 50.3252C82.7532 57.4452 79.4005 64.0274 74.3639 69.2079L53.1506 48.5839C54.0283 47.681 54.6126 46.534 54.8268 45.2931C55.0409 44.0523 54.8749 42.7758 54.3506 41.631C53.8263 40.4862 52.9681 39.5266 51.8887 38.8783C50.8093 38.2299 49.5591 37.9231 48.3021 37.9979C47.0452 38.0728 45.8403 38.526 44.8455 39.2979C43.8507 40.0698 43.1125 41.1245 42.7278 42.3234C42.3431 43.5224 42.3299 44.8096 42.6899 46.0162C43.0498 47.2228 43.7662 48.2924 44.7449 49.0847L26.1304 72.0815Z" fill="black"/>
<path d="M33.9269 62.4093C30.2524 59.4351 27.563 55.4194 26.2115 50.8893C24.86 46.3592 24.9097 41.5263 26.354 37.0249C27.7983 32.5236 30.5697 28.564 34.3046 25.6659C38.0395 22.7678 42.5632 21.0665 47.2823 20.7853C52.0013 20.5042 56.6951 21.6563 60.7477 24.0905C64.8002 26.5246 68.0222 30.1271 69.9907 34.4252C71.9593 38.7232 72.5824 43.516 71.7784 48.1745C70.9743 52.833 68.7807 57.1396 65.4853 60.5292L55.4771 50.7989C56.8103 49.4276 57.6978 47.6852 58.0231 45.8004C58.3484 43.9157 58.0963 41.9766 57.2999 40.2377C56.5034 38.4988 55.1999 37.0413 53.5603 36.0564C51.9207 35.0716 50.0217 34.6055 48.1124 34.7192C46.2032 34.833 44.3729 35.5213 42.8619 36.6938C41.3508 37.8663 40.2295 39.4683 39.6452 41.2895C39.0608 43.1107 39.0408 45.066 39.5875 46.8988C40.1343 48.7316 41.2224 50.3563 42.7091 51.5596L33.9269 62.4093Z" fill="black"/>
</g>
<defs>
<filter id="filter0_d" x="0.62793" y="0.121094" width="251.372" height="118.311" filterUnits="userSpaceOnUse" color-interpolation-filters="sRGB">
<feFlood flood-opacity="0" result="BackgroundImageFix"/>
<feColorMatrix in="SourceAlpha" type="matrix" values="0 0 0 0 0 0 0 0 0 0 0 0 0 0 0 0 0 0 127 0"/>
<feMorphology radius="2" operator="dilate" in="SourceAlpha" result="effect1_dropShadow"/>
<feOffset dy="4"/>
<feGaussianBlur stdDeviation="2"/>
<feColorMatrix type="matrix" values="0 0 0 0 0 0 0 0 0 0 0 0 0 0 0 0 0 0 0.15 0"/>
<feBlend mode="normal" in2="BackgroundImageFix" result="effect1_dropShadow"/>
<feBlend mode="normal" in="SourceGraphic" in2="effect1_dropShadow" result="shape"/>
</filter>
</defs>
</svg>
