<svg width="250" height="114" viewBox="0 0 250 114" fill="none" xmlns="http://www.w3.org/2000/svg">
<path d="M68.37 112.463H78.7717L61.713 63.9219H49.8551L32.8657 112.463H43.198L46.1105 103.726H65.4576L68.37 112.463ZM49.1616 94.7801L55.8187 74.9476L62.4758 94.7801H49.1616Z" fill="black"/>
<path d="M98.6247 113.434C105.42 113.434 111.315 109.828 114.297 104.419L106.53 99.9809C105.143 102.824 102.161 104.558 98.5554 104.558C93.2159 104.558 89.2633 100.605 89.2633 95.1268C89.2633 89.5793 93.2159 85.6267 98.5554 85.6267C102.092 85.6267 105.074 87.4296 106.461 90.2727L114.158 85.7653C111.315 80.4258 105.42 76.8199 98.6247 76.8199C88.0844 76.8199 80.3178 84.7945 80.3178 95.1268C80.3178 105.459 88.0844 113.434 98.6247 113.434Z" fill="black"/>
<path d="M134.99 113.434C141.786 113.434 147.68 109.828 150.662 104.419L142.895 99.9809C141.508 102.824 138.526 104.558 134.921 104.558C129.581 104.558 125.628 100.605 125.628 95.1268C125.628 89.5793 129.581 85.6267 134.921 85.6267C138.457 85.6267 141.439 87.4296 142.826 90.2727L150.523 85.7653C147.68 80.4258 141.786 76.8199 134.99 76.8199C124.45 76.8199 116.683 84.7945 116.683 95.1268C116.683 105.459 124.45 113.434 134.99 113.434Z" fill="black"/>
<path d="M162.41 98.8021H188.552C188.76 97.6232 188.899 96.4444 188.899 95.1268C188.899 84.9332 181.618 76.8199 171.355 76.8199C160.468 76.8199 153.048 84.7945 153.048 95.1268C153.048 105.459 160.399 113.434 172.048 113.434C178.706 113.434 183.906 110.729 187.166 106.014L179.954 101.853C178.428 103.864 175.654 105.32 172.187 105.32C167.472 105.32 163.658 103.379 162.41 98.8021ZM162.271 91.8676C163.311 87.4296 166.57 84.8639 171.355 84.8639C175.1 84.8639 178.844 86.8749 179.954 91.8676H162.271Z" fill="black"/>
<path d="M202.042 87.6376C202.042 85.7653 203.844 84.7945 206.063 84.7945C208.629 84.7945 210.571 86.1121 211.611 88.3311L219.239 84.1704C216.534 79.3857 211.68 76.8199 206.063 76.8199C198.921 76.8199 192.888 80.7726 192.888 87.8457C192.888 100.05 210.779 97.2765 210.779 102.339C210.779 104.35 208.837 105.32 205.994 105.32C202.527 105.32 200.169 103.656 199.198 100.813L191.432 105.182C193.928 110.521 199.06 113.434 205.994 113.434C213.414 113.434 219.932 109.828 219.932 102.339C219.932 89.5793 202.042 92.7691 202.042 87.6376Z" fill="black"/>
<path d="M232.109 87.6376C232.109 85.7653 233.912 84.7945 236.131 84.7945C238.697 84.7945 240.638 86.1121 241.678 88.3311L249.306 84.1704C246.602 79.3857 241.748 76.8199 236.131 76.8199C228.988 76.8199 222.955 80.7726 222.955 87.8457C222.955 100.05 240.846 97.2765 240.846 102.339C240.846 104.35 238.905 105.32 236.061 105.32C232.594 105.32 230.236 103.656 229.266 100.813L221.499 105.182C223.996 110.521 229.127 113.434 236.061 113.434C243.481 113.434 250 109.828 250 102.339C250 89.5793 232.109 92.7691 232.109 87.6376Z" fill="black"/>
<g filter="url(#filter0_d)">
<path d="M26.2541 82.0099C19.6497 76.664 14.8158 69.4464 12.3867 61.3041C9.95761 53.1619 10.0469 44.4755 12.6428 36.3849C15.2387 28.2943 20.22 21.1775 26.9329 15.9685C33.6458 10.7596 41.7767 7.70178 50.2585 7.19645C58.7403 6.69112 67.1768 8.76187 74.4607 13.1369C81.7446 17.512 87.5356 23.987 91.0738 31.7121C94.612 39.4373 95.732 48.0516 94.2869 56.4247C92.8418 64.7977 88.899 72.5383 82.976 78.6305L55.8222 52.2309C56.4216 51.6143 56.8207 50.8309 56.9669 49.9835C57.1132 49.1361 56.9998 48.2642 56.6417 47.4824C56.2836 46.7005 55.6975 46.0452 54.9603 45.6024C54.2231 45.1596 53.3693 44.95 52.5108 45.0012C51.6524 45.0523 50.8295 45.3618 50.1501 45.889C49.4707 46.4162 48.9665 47.1365 48.7038 47.9553C48.4411 48.7741 48.432 49.6533 48.6779 50.4773C48.9237 51.3014 49.413 52.0319 50.0814 52.573L26.2541 82.0099Z" fill="black" fill-opacity="0.5"/>
</g>
<g filter="url(#filter1_d)">
<path d="M30.1302 77.0806C24.5141 72.5347 20.4036 66.3972 18.338 59.4735C16.2724 52.5497 16.3483 45.1632 18.5558 38.2834C20.7632 31.4035 24.9991 25.3518 30.7074 20.9223C36.4157 16.4929 43.3298 13.8927 50.5423 13.463C57.7548 13.0333 64.9288 14.7941 71.1226 18.5145C77.3165 22.2348 82.2409 27.7408 85.2496 34.3099C88.2583 40.879 89.2107 48.2042 87.9818 55.3242C86.753 62.4443 83.4002 69.0264 78.3636 74.2069L57.1503 53.5829C58.0281 52.6801 58.6124 51.533 58.8265 50.2922C59.0407 49.0514 58.8747 47.7748 58.3504 46.63C57.826 45.4852 56.9679 44.5257 55.8884 43.8773C54.809 43.229 53.5588 42.9221 52.3019 42.997C51.045 43.0719 49.84 43.525 48.8452 44.297C47.8504 45.0689 47.1123 46.1235 46.7276 47.3225C46.3429 48.5214 46.3296 49.8087 46.6896 51.0153C47.0496 52.2219 47.7659 53.2915 48.7446 54.0837L30.1302 77.0806Z" fill="black" fill-opacity="0.7"/>
</g>
<g filter="url(#filter2_d)">
<path d="M37.9265 67.4111C34.252 64.4368 31.5625 60.4211 30.2111 55.891C28.8596 51.3609 28.9093 46.528 30.3536 42.0267C31.7979 37.5253 34.5693 33.5657 38.3042 30.6676C42.039 27.7695 46.5628 26.0682 51.2819 25.7871C56.0009 25.5059 60.6947 26.658 64.7472 29.0922C68.7998 31.5264 72.0218 35.1288 73.9903 39.4269C75.9588 43.7249 76.582 48.5177 75.778 53.1762C74.9739 57.8348 72.7803 62.1414 69.4849 65.5309L59.4767 55.8007C60.8099 54.4293 61.6974 52.6869 62.0227 50.8022C62.348 48.9174 62.0959 46.9783 61.2995 45.2394C60.503 43.5005 59.1995 42.043 57.5599 41.0582C55.9203 40.0733 54.0213 39.6072 52.112 39.721C50.2028 39.8347 48.3725 40.523 46.8615 41.6956C45.3504 42.8681 44.2291 44.4701 43.6448 46.2912C43.0604 48.1124 43.0403 50.0677 43.5871 51.9005C44.1339 53.7333 45.222 55.358 46.7087 56.5614L37.9265 67.4111Z" fill="black"/>
</g>
<defs>
<filter id="filter0_d" x="0.699219" y="0.425781" width="104.898" height="99.2364" filterUnits="userSpaceOnUse" color-interpolation-filters="sRGB">
<feFlood flood-opacity="0" result="BackgroundImageFix"/>
<feColorMatrix in="SourceAlpha" type="matrix" values="0 0 0 0 0 0 0 0 0 0 0 0 0 0 0 0 0 0 127 0"/>
<feMorphology radius="2" operator="dilate" in="SourceAlpha" result="effect1_dropShadow"/>
<feOffset dy="4"/>
<feGaussianBlur stdDeviation="2"/>
<feColorMatrix type="matrix" values="0 0 0 0 0 0 0 0 0 0 0 0 0 0 0 0 0 0 0.15 0"/>
<feBlend mode="normal" in2="BackgroundImageFix" result="effect1_dropShadow"/>
<feBlend mode="normal" in="SourceGraphic" in2="effect1_dropShadow" result="shape"/>
</filter>
<filter id="filter1_d" x="7.50195" y="7.40625" width="90.9956" height="86.1815" filterUnits="userSpaceOnUse" color-interpolation-filters="sRGB">
<feFlood flood-opacity="0" result="BackgroundImageFix"/>
<feColorMatrix in="SourceAlpha" type="matrix" values="0 0 0 0 0 0 0 0 0 0 0 0 0 0 0 0 0 0 127 0"/>
<feMorphology radius="2" operator="dilate" in="SourceAlpha" result="effect1_dropShadow"/>
<feOffset dy="4"/>
<feGaussianBlur stdDeviation="2"/>
<feColorMatrix type="matrix" values="0 0 0 0 0 0 0 0 0 0 0 0 0 0 0 0 0 0 0.15 0"/>
<feBlend mode="normal" in2="BackgroundImageFix" result="effect1_dropShadow"/>
<feBlend mode="normal" in="SourceGraphic" in2="effect1_dropShadow" result="shape"/>
</filter>
<filter id="filter2_d" x="21.0469" y="21.1328" width="63.6856" height="60.5358" filterUnits="userSpaceOnUse" color-interpolation-filters="sRGB">
<feFlood flood-opacity="0" result="BackgroundImageFix"/>
<feColorMatrix in="SourceAlpha" type="matrix" values="0 0 0 0 0 0 0 0 0 0 0 0 0 0 0 0 0 0 127 0"/>
<feMorphology radius="2" operator="dilate" in="SourceAlpha" result="effect1_dropShadow"/>
<feOffset dy="4"/>
<feGaussianBlur stdDeviation="2"/>
<feColorMatrix type="matrix" values="0 0 0 0 0 0 0 0 0 0 0 0 0 0 0 0 0 0 0.15 0"/>
<feBlend mode="normal" in2="BackgroundImageFix" result="effect1_dropShadow"/>
<feBlend mode="normal" in="SourceGraphic" in2="effect1_dropShadow" result="shape"/>
</filter>
</defs>
</svg>
